<svg xmlns="http://www.w3.org/2000/svg" viewBox="0 0 40 40" xml:space="preserve" width="40" height="40"><g stroke-width="0"/><g stroke-linecap="round" stroke-linejoin="round"/><path d="M18.32 17.273c-0.452 0.008 -0.757 0.056 -0.916 0.103v2.822c0.188 0.044 0.42 0.059 0.741 0.061 1.196 0.008 1.948 -0.583 1.948 -1.584 0 -0.899 -0.647 -1.424 -1.773 -1.402z"/><path d="M36.668 3.344h-12.11c-0.054 0 -0.106 0.005 -0.159 0.008V0L0.763 3.154v33.61l23.636 3.236v-3.453c0.053 0.004 0.105 0.008 0.159 0.008h12.11c1.417 0 2.569 -1.153 2.569 -2.569V5.912c0 -1.416 -1.152 -2.568 -2.569 -2.568zM6.695 21.566c0 2.47 -1.082 3.276 -2.775 3.189 -0.392 -0.02 -0.904 -0.121 -1.234 -0.261l0.187 -1.515c0.232 0.095 0.532 0.168 0.867 0.179 0.723 0.026 1.18 -0.325 1.18 -1.652v-5.361l1.775 -0.059v5.48zm3.586 3.502c-0.97 -0.05 -1.909 -0.359 -2.373 -0.654l0.378 -1.629c0.505 0.291 1.288 0.594 2.11 0.624 0.899 0.032 1.38 -0.342 1.38 -0.936 0 -0.566 -0.416 -0.897 -1.456 -1.303 -1.406 -0.533 -2.302 -1.35 -2.302 -2.626 0 -1.498 1.182 -2.685 3.2 -2.755 0.991 -0.034 1.733 0.159 2.27 0.388l-0.457 1.691c-0.36 -0.172 -0.993 -0.418 -1.852 -0.401 -0.847 0.016 -1.252 0.422 -1.252 0.886 0 0.57 0.482 0.82 1.601 1.261 1.569 0.603 2.324 1.46 2.324 2.764 0 1.553 -1.168 2.813 -3.571 2.691zm11.172 -4.113c-0.799 0.705 -1.962 1.002 -3.294 0.975 -0.292 -0.006 -0.553 -0.026 -0.756 -0.059v3.417l-2.139 -0.107V15.928c0.657 -0.133 1.594 -0.249 2.939 -0.294 1.393 -0.047 2.406 0.181 3.095 0.687 0.668 0.483 1.122 1.302 1.122 2.278 0 0.977 -0.345 1.803 -0.967 2.356zM37.769 33.986c0 0.607 -0.494 1.101 -1.101 1.101h-12.11c-0.054 0 -0.107 -0.008 -0.159 -0.016V26.097c0.824 0.114 1.97 0.181 3.548 0.181 4.384 0 6.308 -0.804 6.623 -1.143 0.316 -0.342 -0.098 -0.61 -0.098 -0.61s0.146 0.171 -0.047 0.366c-0.195 0.194 -1.974 0.68 -4.823 0.826 -1.979 0.102 -4.075 -0.067 -5.203 -0.301v-0.818c0.381 -0.105 0.747 -0.169 0.747 -0.169 -0.064 0.008 -0.37 0.019 -0.747 0.054v-4.003c0.633 0.312 1.943 0.494 3.926 0.424 3.467 -0.124 3.875 -0.777 4.237 -1.091 -2.008 0.547 -7.341 0.512 -7.379 0.11 -0.035 -0.402 1.644 -0.731 1.644 -0.731s-1.627 0.001 -2.427 0.323V4.828c0.052 -0.008 0.105 -0.017 0.159 -0.017h12.11c0.607 0 1.101 0.494 1.101 1.101v28.073z"/><path d="M30.882 12.287c0.875 -1.425 -0.11 -2.812 -0.11 -2.812s0.219 1.023 -0.365 2.082c-0.584 1.059 -2.742 1.681 -3.581 3.506 -0.839 1.827 1.863 3.909 1.863 3.909s-0.987 -1.901 -0.95 -3.289c0.027 -0.992 2.264 -1.973 3.143 -3.397z"/><path d="M32.38 13.201s-3.361 1.278 -3.361 2.739c0 1.462 0.913 1.936 1.059 2.411 0.146 0.476 -0.255 1.279 -0.255 1.279s1.315 -0.913 1.094 -1.973c-0.219 -1.059 -1.242 -1.388 -0.657 -2.447 0.391 -0.709 2.119 -2.008 2.119 -2.008zm0.693 6.063s1.498 0 1.643 0.913c0.146 0.913 -1.899 2.264 -1.899 2.264s3.22 -0.648 2.92 -2.299c-0.365 -2.009 -2.665 -0.877 -2.665 -0.877zm-7.161 2.41c-0.144 -0.256 0.257 -0.401 0.257 -0.401 -1.828 0.439 -0.83 1.205 1.312 1.353 1.836 0.125 3.887 -0.549 3.887 -0.549l0.632 -0.511s-1.447 0.201 -2.582 0.329c-1.521 0.171 -3.36 0.036 -3.506 -0.22zm0.624 1.755c-0.075 -0.171 0.072 -0.267 0.072 -0.267s-0.828 0.023 -0.876 0.462c-0.049 0.436 0.257 0.657 2.307 0.609 2.439 -0.058 2.846 -0.348 3.097 -0.56l0.594 -0.448c-1.594 0.207 -1.718 0.263 -2.622 0.289 -0.908 0.027 -2.5 0.084 -2.572 -0.084zm6.33 3.141c-1.924 0.39 -7.766 0.145 -7.766 0.145s3.797 0.9 8.131 0.146c2.072 -0.36 2.193 -1.364 2.193 -1.364s-0.635 0.683 -2.558 1.073z"/></svg>